HIERARCHY
ROOT Hips
{
  OFFSET 1.44925e-005 102.336 -0.101585
  CHANNELS 6 Xposition Yposition Zposition Zrotation Xrotation Yrotation
  JOINT LeftUpLeg
  {
    OFFSET 8.9458 -8.66707 0.101652
    CHANNELS 3 Zrotation Xrotation Yrotation
    JOINT LeftLeg
    {
      OFFSET 0 -44.4227 1.3727
      CHANNELS 3 Zrotation Xrotation Yrotation
      JOINT LeftFoot
      {
        OFFSET -0.253549 -42.0924 -1.46059
        CHANNELS 3 Zrotation Xrotation Yrotation
        JOINT LeftToes
        {
          OFFSET -0.04 -4.41509 8.4991
          CHANNELS 3 Zrotation Xrotation Yrotation
          End Site
          {
            OFFSET 0.08 -0.047448 9.77979
          }
        }
      }
    }
  }
  JOINT Spine
  {
    OFFSET 0 11.8905 0
    CHANNELS 3 Zrotation Xrotation Yrotation
    JOINT Spine1
    {
      OFFSET 0 25.6574 0.127663
      CHANNELS 3 Zrotation Xrotation Yrotation
      JOINT RightShoulder
      {
        OFFSET -8.99 -0.362252 -0.22
        CHANNELS 3 Zrotation Xrotation Yrotation
        JOINT RightArm
        {
          OFFSET -10.2827 -0.00338 0.322123
          CHANNELS 3 Zrotation Xrotation Yrotation
          JOINT RightForeArm
          {
            OFFSET -26.364 0.099144 -1.42434
            CHANNELS 3 Zrotation Xrotation Yrotation
            JOINT RightHand
            {
              OFFSET -22.0324 0.085362 1.02216
              CHANNELS 3 Zrotation Xrotation Yrotation
              End Site
              {
                OFFSET -13.3284 -0.6 1.50291
              }
            }
          }
        }
      }
      JOINT LeftShoulder1
      {
        OFFSET 8.99 -0.362252 -0.22
        CHANNELS 3 Zrotation Xrotation Yrotation
        JOINT LeftArm
        {
          OFFSET 10.2827 -0.00337999 0.322123
          CHANNELS 3 Zrotation Xrotation Yrotation
          JOINT LeftForeArm
          {
            OFFSET 26.2597 0.099144 -1.42434
            CHANNELS 3 Zrotation Xrotation Yrotation
            JOINT LeftHand
            {
              OFFSET 22.0902 0.085362 1.02216
              CHANNELS 3 Zrotation Xrotation Yrotation
              End Site
              {
                OFFSET 13.419 -0.6 1.50291
              }
            }
          }
        }
      }
      JOINT Head
      {
        OFFSET 0 8.73416 0.011341
        CHANNELS 3 Zrotation Xrotation Yrotation
        End Site
        {
          OFFSET -0.29 12.7742 2.51395
        }
      }
    }
  }
  JOINT RightUpLeg
  {
    OFFSET -8.9458 -8.66707 0.101652
    CHANNELS 3 Zrotation Xrotation Yrotation
    JOINT RightLeg
    {
      OFFSET 0 -44.4227 1.3727
      CHANNELS 3 Zrotation Xrotation Yrotation
      JOINT RightFoot
      {
        OFFSET 0.253549 -42.0924 -1.46059
        CHANNELS 3 Zrotation Xrotation Yrotation
        JOINT RightToes
        {
          OFFSET 0.04 -4.41509 8.4991
          CHANNELS 3 Zrotation Xrotation Yrotation
          End Site
          {
            OFFSET -0.08 -0.137448 9.77979
          }
        }
      }
    }
  }
}
MOTION
Frames:	8
Frame Time:	0.0333333
7.39991 87.3856 -1.82225 -7.46417 8.49254 -94.5272 7.38491 -10.3118 -3.0104 115.269 89.0584 -97.8443 -5.47803 -13.13 -0.202995 -1.30558e-009 8.75237e-006 -1.46794e-008 9.67146 21.8207 -5.06698 6.94352 0.549247 -3.31952 40.478 1.80558 -0.108833 34.801 -8.33945 7.00938 -2.23465 25.9685 48.1971 -15.1582 9.16458 0.48298 -46.0126 3.77923 -3.64681 -30.4275 -16.527 -11.7294 15.4959 32.3848 -59.839 5.82328 9.61819 -0.917488 2.57481 -24.2933 4.59513 12.6904 -23.5879 -0.874409 -2.17224 61.9884 -19.3496 5.10496 -33.4467 0.862421 0.0462048 0.000530889 0.662642 
3.69619 88.0807 -2.01951 -7.25884 8.07272 -95.17 6.28256 -16.4779 -3.36279 155.63 87.9491 -138.355 -6.756 -14.9877 -0.364729 -1.30558e-009 8.75237e-006 -1.46794e-008 11.9225 21.5005 -4.30857 3.14358 0.186976 -1.54855 39.2886 1.791 -0.0469805 40.1572 -8.82763 16.9733 -3.89003 26.8079 51.7461 -14.7598 9.14651 0.803847 -47.3755 3.8833 -3.6369 -27.9552 -13.0867 -4.97626 9.51675 31.3349 -49.8685 5.82328 9.61819 -0.917488 1.7707 -24.4394 1.72596 12.0526 -20.4544 -0.92609 -2.07344 60.8987 -18.772 5.63983 -34.4985 1.04434 0.0462048 0.000530889 0.662642 
-0.185756 89.8985 -2.23343 -7.04113 6.96897 -95.249 4.75724 -21.8252 -3.56085 80.833 89.1325 -62.9536 -7.98528 -16.3929 -0.537731 -1.30558e-009 8.75237e-006 -1.46794e-008 12.9084 21.0053 -3.06791 -0.124477 -0.357807 0.237989 37.8046 1.75734 -0.00154927 43.9464 -8.90311 24.8892 -3.85382 26.2041 56.7027 -14.874 9.17388 0.52699 -47.8598 3.90409 -3.60335 -26.4537 -8.67317 1.91131 6.12861 30.1504 -43.005 5.82328 9.61819 -0.917488 1.01979 -24.74 -1.63681 10.4536 -15.7637 -1.38756 -1.77903 56.6243 -18.2715 5.86942 -34.9451 1.12562 0.0462048 0.000530889 0.662642 
-4.25631 92.4539 -2.49201 -6.37886 4.88031 -94.8822 2.51181 -26.235 -3.61974 9.69025 84.7031 9.43301 -8.97977 -17.53 -0.700884 -1.30558e-009 8.75237e-006 -1.46794e-008 11.8474 19.9832 -1.44577 -2.39349 -1.26048 1.71678 36.716 1.71883 0.000971711 45.3806 -8.78562 30.7506 -3.74487 25.5722 62.1737 -14.4988 9.24176 0.110993 -47.541 3.84165 -3.53601 -25.9481 -4.57638 9.20391 4.11084 29.1111 -38.2857 5.82328 9.61819 -0.917488 0.386193 -24.3363 -4.77064 8.062 -10.5677 -1.46979 -1.50342 50.0319 -18.1919 6.86131 -33.9366 1.31323 0.0462048 0.000530889 0.662642 
-8.43467 95.3167 -2.6526 -5.27532 2.36837 -94.4834 -0.0112579 -29.5929 -3.34371 4.30436 77.4246 15.8289 -9.54229 -18.376 -0.818932 -1.30558e-009 8.75237e-006 -1.46794e-008 10.013 18.739 0.206472 -4.57 -2.65553 2.98349 35.6679 1.67541 -0.0125518 46.1184 -9.04294 34.754 -4.67425 25.401 67.5878 -13.0928 9.32906 -0.0762791 -46.9744 3.73478 -3.42168 -25.642 -1.65215 16.9784 2.53005 27.8194 -35.4047 5.82328 9.61819 -0.917488 -0.196983 -22.94 -7.48206 5.18008 -5.9276 -1.25919 -1.30613 43.0375 -17.7803 8.09926 -30.2435 1.34959 0.0462048 0.000530889 0.662642 
-12.6237 98.1464 -2.61632 -4.31596 0.353894 -94.0752 -2.09723 -31.4169 -2.98481 2.60151 68.6946 17.4096 -9.93821 -18.9535 -0.906491 -1.30558e-009 8.75237e-006 -1.46794e-008 8.95295 17.5706 1.47457 -6.97022 -3.5543 4.09714 34.2034 1.60814 -0.0503102 47.5083 -9.58042 37.8779 -5.40013 25.1491 72.0637 -11.8435 9.40918 -0.313707 -46.5619 3.62777 -3.28187 -24.9356 0.118361 24.4512 1.64131 26.8879 -34.364 5.82328 9.61819 -0.917488 -0.715808 -21.5865 -9.75632 2.35271 -1.80149 -1.91493 -1.12827 36.9038 -16.2763 8.99709 -24.4461 1.08249 0.0462048 0.000530889 0.662642 
-16.8543 100.605 -2.44923 -3.73384 -0.735188 -93.5025 -3.34658 -31.4774 -2.75683 1.76827 59.0372 17.4323 -10.8981 -19.4942 -1.05505 -1.30558e-009 8.75237e-006 -1.46794e-008 8.765 16.13 2.31367 -8.88974 -3.17965 4.98505 32.6358 1.52524 -0.123194 49.0068 -9.97805 40.801 -4.7014 24.6364 75.126 -11.8161 9.45704 -0.80858 -46.1898 3.53409 -3.15873 -24.0202 0.871189 31.0839 1.69696 26.9034 -34.7748 5.82328 9.61819 -0.917488 -1.13634 -20.783 -11.4359 0.200819 2.17246 -4.15296 -0.965705 31.7116 -13.9029 9.63344 -18.0162 0.65279 0.0462048 0.000530889 0.662642 
-21.1554 102.442 -2.24347 -3.26134 -1.07741 -92.7956 -3.81732 -30.2593 -2.4906 1.35578 48.8347 17.6166 -12.0221 -19.839 -1.21046 -1.30558e-009 8.75237e-006 -1.46794e-008 8.64301 14.2755 2.95115 -9.7659 -2.19618 5.60955 31.5219 1.45919 -0.198623 49.5711 -10.0214 43.3368 -3.65872 24.2278 77.1593 -12.2235 9.4811 -1.22977 -45.6356 3.45432 -3.08526 -23.1632 0.599238 37.2464 2.22461 27.3543 -36.094 5.82328 9.61819 -0.917488 -1.3653 -19.7324 -12.401 -1.07339 5.78328 -7.12362 -0.748932 27.4688 -11.6063 10.0115 -11.8618 0.175362 0.0462048 0.000530889 0.662642 
